<?xml version="1.0" standalone="no"?>
<!DOCTYPE svg PUBLIC "-//W3C//DTD SVG 20010904//EN"
 "http://www.w3.org/TR/2001/REC-SVG-20010904/DTD/svg10.dtd">
<svg version="1.0" xmlns="http://www.w3.org/2000/svg"
 width="626.000000pt" height="626.000000pt" viewBox="0 0 626.000000 626.000000"
 preserveAspectRatio="xMidYMid meet">

<g transform="translate(0.000000,626.000000) scale(0.100000,-0.100000)"
fill="#000000" stroke="none">
<path d="M2985 4709 c-33 -4 -104 -22 -157 -40 -322 -104 -558 -355 -645 -689
-32 -122 -36 -321 -9 -444 80 -362 360 -650 721 -742 115 -29 306 -36 410 -15
366 74 648 326 758 676 154 492 -114 1029 -602 1205 -143 52 -323 71 -476 49z"/>
<path d="M2900 2525 c-552 -76 -1020 -392 -1300 -875 -33 -58 -78 -150 -99
-205 -54 -138 -135 -416 -124 -424 5 -3 45 -34 89 -67 375 -288 808 -468 1299
-541 167 -24 561 -24 730 1 422 61 812 208 1145 429 88 59 184 130 221 165
l27 24 -35 131 c-63 238 -137 410 -250 582 -371 563 -1042 871 -1703 780z"/>
</g>
</svg>
