<svg width="20" height="20" viewBox="0 0 20 20" fill="none" xmlns="http://www.w3.org/2000/svg">
<path fill-rule="evenodd" clipRule="evenodd" d="M9.95221 1.0415H10.0478C11.9715 1.04149 13.479 1.04148 14.6553 1.19963C15.8592 1.36149 16.8092 1.69928 17.5549 2.44495C18.3006 3.19063 18.6384 4.14065 18.8002 5.34459C18.9584 6.52083 18.9584 8.02836 18.9584 9.95203V10.0476C18.9584 11.9713 18.9584 13.4788 18.8002 14.6551C18.6384 15.859 18.3006 16.809 17.5549 17.5547C16.8092 18.3004 15.8592 18.6382 14.6553 18.8C13.479 18.9582 11.9715 18.9582 10.0478 18.9582H9.95221C8.02855 18.9582 6.52102 18.9582 5.34478 18.8C4.14083 18.6382 3.19081 18.3004 2.44513 17.5547C1.69946 16.809 1.36168 15.859 1.19981 14.6551C1.04167 13.4788 1.04168 11.9713 1.04169 10.0477V9.95202C1.04168 8.02836 1.04167 6.52083 1.19981 5.34459C1.36168 4.14065 1.69946 3.19063 2.44513 2.44495C3.19081 1.69928 4.14083 1.36149 5.34478 1.19963C6.52101 1.04148 8.02854 1.04149 9.95221 1.0415ZM5.51133 2.43848C4.446 2.58171 3.80373 2.85412 3.32902 3.32883C2.8543 3.80355 2.58189 4.44582 2.43866 5.51115C2.41604 5.67945 2.39689 5.85596 2.38069 6.0415H5.49026L7.87034 2.30138C6.93078 2.3158 6.16006 2.35126 5.51133 2.43848ZM9.33932 2.29177C9.32383 2.33541 9.30322 2.37799 9.27731 2.41872L6.9719 6.0415H10.9069L13.2658 2.33476C12.3798 2.29209 11.3123 2.2915 10 2.2915C9.77254 2.2915 9.55242 2.29152 9.33932 2.29177ZM14.6652 2.46399L12.3886 6.0415H17.6193C17.6031 5.85596 17.584 5.67945 17.5614 5.51115C17.4181 4.44582 17.1457 3.80355 16.671 3.32883C16.2231 2.88092 15.626 2.61312 14.6652 2.46399ZM17.6861 7.2915H11.2594C11.2527 7.29161 11.2461 7.29161 11.2395 7.2915H5.8427C5.83608 7.29161 5.82946 7.29161 5.82283 7.2915H2.31396C2.29206 8.05961 2.29169 8.95163 2.29169 9.99984C2.29169 11.9817 2.29301 13.4052 2.43866 14.4885C2.58189 15.5539 2.8543 16.1961 3.32902 16.6708C3.80373 17.1456 4.446 17.418 5.51133 17.5612C6.59465 17.7068 8.01817 17.7082 10 17.7082C11.9819 17.7082 13.4054 17.7068 14.4887 17.5612C15.554 17.418 16.1963 17.1456 16.671 16.6708C17.1457 16.1961 17.4181 15.5539 17.5614 14.4885C17.707 13.4052 17.7084 11.9817 17.7084 9.99984C17.7084 8.95163 17.708 8.05961 17.6861 7.2915ZM11.1402 9.9342L11.2249 9.98884C11.7414 10.322 12.1886 10.6105 12.5003 10.8862C12.8319 11.1795 13.125 11.557 13.125 12.0832C13.125 12.6093 12.8319 12.9869 12.5003 13.2801C12.1886 13.5558 11.7414 13.8443 11.2249 14.1775L11.1402 14.2321C10.6184 14.5689 10.165 14.8615 9.78827 15.0288C9.39633 15.2028 8.89416 15.3282 8.41521 15.0239C7.96132 14.7355 7.8237 14.2434 7.76596 13.81C7.7083 13.3774 7.70832 12.806 7.70835 12.129V12.0374C7.70832 11.3604 7.7083 10.789 7.76596 10.3563C7.8237 9.92298 7.96132 9.4308 8.41521 9.14245C8.89416 8.83817 9.39633 8.96355 9.78827 9.13757C10.165 9.30482 10.6184 9.59747 11.1402 9.9342ZM9.04828 10.2096C9.04778 10.2089 9.05167 10.2079 9.06148 10.2085C9.05369 10.2105 9.04879 10.2102 9.04828 10.2096ZM9.08094 10.2109C9.11441 10.2166 9.17659 10.2337 9.28101 10.28C9.55733 10.4027 9.92788 10.6396 10.5061 11.0127C11.0756 11.3801 11.4405 11.6176 11.6722 11.8226C11.8856 12.0113 11.8759 12.0775 11.8751 12.0828C11.8759 12.0882 11.8856 12.1551 11.6722 12.3438C11.4405 12.5487 11.0756 12.7862 10.5061 13.1537C9.92788 13.5268 9.55733 13.7636 9.28101 13.8863C9.17659 13.9327 9.1144 13.9498 9.08094 13.9555C9.06243 13.9198 9.03015 13.8337 9.005 13.6449C8.9597 13.305 8.95835 12.8183 8.95835 12.0832C8.95835 11.3481 8.9597 10.8614 9.005 10.5214C9.03015 10.3327 9.06243 10.2465 9.08094 10.2109ZM9.04829 13.9568C9.0488 13.9561 9.0537 13.9558 9.06148 13.9579C9.05166 13.9585 9.04777 13.9574 9.04829 13.9568ZM9.09175 13.9733C9.09461 13.9757 9.09585 13.9774 9.09576 13.9776C9.09567 13.9778 9.09424 13.9766 9.09175 13.9733ZM9.09175 10.193C9.09424 10.1897 9.09567 10.1885 9.09576 10.1887C9.09585 10.189 9.09461 10.1906 9.09175 10.193Z" fill="#877EFF"/>
</svg>
